<svg width="112" height="112" viewBox="0 0 112 112" fill="none" xmlns="http://www.w3.org/2000/svg">
<g clip-path="url(#clip0_1313_1107)">
<path fill-rule="evenodd" clip-rule="evenodd" d="M38.8931 54.5737C37.8932 55.0509 36.8937 55.539 36.0756 55.998C21.4413 64.1087 7.89732 76.8143 0.262001 91.7104C-0.0106889 92.2531 0.171104 92.9212 0.716484 93.2002C1.26186 93.4793 1.89867 93.2647 2.17136 92.7212C9.71578 78.2041 22.8958 65.8376 37.1666 57.9323C37.6211 57.6705 38.1666 57.3988 38.712 57.1233C38.8029 58.4732 39.2572 59.5848 39.8935 60.4811C40.8933 61.81 42.4384 62.7126 44.2563 63.2134C46.8014 63.9051 49.8007 63.8288 52.5276 63.1961C54.6182 62.6889 56.5272 61.8218 57.7089 60.7519C58.7087 59.8893 59.2539 58.8822 59.3448 57.8205C59.4357 56.7025 58.9818 55.4608 57.6183 54.2137C55.3459 52.0495 52.2549 51.4068 48.8917 51.6814C46.4375 51.885 43.8927 52.5958 41.5294 53.4793C41.8021 52.7412 42.1659 51.944 42.6204 51.0842C46.2562 44.6241 54.9818 38.5377 65.2531 33.4929C80.8873 25.8322 100.158 20.6402 110.883 20.5883C111.429 20.5856 111.974 20.0875 111.974 19.4767C111.974 18.8658 111.429 18.3723 110.883 18.375C99.8849 18.4277 80.2514 23.6852 64.2536 31.5059C53.5278 36.7825 44.4378 43.2534 40.711 50.0116C39.802 51.7113 39.1658 53.2275 38.8931 54.5737ZM40.893 56.1126C40.8021 57.3569 41.0746 58.3595 41.62 59.1521C42.3471 60.1111 43.5288 60.7183 44.8014 61.0792C46.9829 61.6791 49.6192 61.5909 51.9825 61.0419C53.6187 60.6483 55.1636 60.0211 56.1634 59.2058C56.7088 58.7449 57.0729 58.2441 57.1638 57.666C57.1638 57.0761 56.7997 56.4761 56.1634 55.8181C54.2546 54.0837 51.7097 53.6674 49.0737 53.8874C46.3468 54.1165 43.3472 55.0454 40.893 56.1126Z" fill="#FF6540"/>
<path fill-rule="evenodd" clip-rule="evenodd" d="M2.14651 92.6157C4.41893 86.6447 4.87394 79.6384 4.05587 73.3211C3.96498 72.7148 3.41978 72.284 2.8744 72.3603C2.23812 72.4358 1.7831 72.9893 1.874 73.5947C2.60117 79.5639 2.23759 86.1857 0.0560673 91.8277C-0.125726 92.3985 0.147142 93.0384 0.692521 93.2566C1.3288 93.4738 1.96472 93.1866 2.14651 92.6157Z" fill="#FF6540"/>
<path fill-rule="evenodd" clip-rule="evenodd" d="M2.11485 92.9321C6.0234 88.2164 12.6594 86.2885 18.5677 85.5486C19.1131 85.4722 19.5675 84.9178 19.4766 84.3115C19.3857 83.7061 18.84 83.2762 18.2037 83.3525C11.841 84.1597 4.66049 86.3848 0.388345 91.5287C0.0247582 92.0013 0.115832 92.6985 0.570316 93.0858C1.0248 93.4739 1.75126 93.4039 2.11485 92.9321Z" fill="#FF6540"/>
</g>
<defs>
<clipPath id="clip0_1313_1107">
<rect width="112" height="112" fill="white"/>
</clipPath>
</defs>
</svg>
