<svg width="562" height="58" viewBox="0 0 562 58" fill="none" xmlns="http://www.w3.org/2000/svg">
<path fill-rule="evenodd" clip-rule="evenodd" d="M392.152 38.4426C335.859 39.082 279.537 41.6185 223.488 46.1525C196.841 48.3085 165.896 48.039 140.051 55.3894C138.763 55.7593 139.009 56.869 139.037 56.98C139.092 57.2072 139.326 57.9628 140.352 57.9998C140.464 58.0051 141.25 57.8994 141.551 57.8624C149.183 56.9112 156.787 55.8016 164.424 54.9033C190.792 51.7908 217.239 49.4393 243.725 47.3785C278.879 44.6412 314.334 43.1827 349.584 42.0413C368.878 41.4177 388.635 42.2473 407.99 40.958C415.098 40.921 422.206 40.9158 429.314 40.9369C459.027 41.0373 488.707 42.1048 518.37 43.5685C527.909 44.0388 535.184 44.5461 544.521 44.8896C548.067 45.0217 553.692 45.1115 557.605 45.1697C558.179 45.1802 559.645 45.1907 560.253 45.196C560.314 45.2066 560.376 45.2066 560.443 45.2066C560.677 45.2066 560.788 45.1907 560.811 45.1907C562.137 45.0057 562.015 43.8168 561.981 43.6371C561.976 43.6002 561.775 42.5961 560.632 42.5591C560.359 42.5486 558.402 42.5381 557.65 42.5275C553.759 42.4694 548.156 42.3795 544.627 42.2527C535.306 41.9092 528.037 41.402 518.515 40.9317C488.807 39.4679 459.083 38.3952 429.325 38.2948C425.69 38.2842 422.05 38.2789 418.415 38.2842C418.292 37.983 418.019 37.6448 417.417 37.4969C416.854 37.3595 412.823 37.2379 411.268 37.1164C399.756 36.2181 400.096 36.2603 387.43 35.5258C368.248 34.4108 365.327 34.1571 345.375 33.6868C309.133 32.8307 272.875 32.8995 236.628 32.9841C218.733 33.0316 199.573 34.1783 181.405 32.0381C187.392 31.3723 193.401 30.8862 199.4 30.3313C219.881 28.4396 240.38 27.2664 260.945 26.442C310.276 24.4657 359.685 23.6784 408.999 26.3734C398.502 26.4685 388.01 26.6904 377.513 26.8331C334.783 27.4249 291.64 26.9811 248.998 30.0512C248.235 30.1094 247.66 30.7435 247.716 31.4674C247.772 32.1966 248.446 32.7409 249.21 32.6881C291.796 29.6179 334.877 30.0671 377.552 29.4752C393.407 29.2586 409.256 28.8676 425.11 28.9838C430.551 29.0261 435.992 29.2164 441.433 29.2798C442.509 29.2956 445.28 29.4964 445.675 29.4119C446.551 29.2269 446.74 28.6139 446.796 28.3127C446.824 28.133 446.913 27.0973 445.575 26.7274C436.444 24.2015 419.591 24.3178 410.716 23.821C360.794 21.0204 310.772 21.8024 260.828 23.7999C240.213 24.6295 219.664 25.808 199.127 27.7051C191.952 28.3656 184.761 28.9363 177.614 29.8135C176.46 29.9562 173.868 30.1623 172.613 30.3789C172.089 30.4688 171.71 30.5955 171.543 30.6853C170.891 31.0341 170.774 31.5414 170.774 31.8849C170.768 32.1491 170.885 33.0791 172.251 33.3328C193.061 37.1956 215.706 35.679 236.634 35.6262C272.858 35.5417 309.089 35.4729 345.308 36.3289C365.21 36.7992 368.12 37.0477 387.263 38.1627C389.153 38.2684 390.753 38.3634 392.152 38.4426Z" fill="#FF6540"/>
</svg>
