<svg width="84" height="92" viewBox="0 0 84 92" fill="none" xmlns="http://www.w3.org/2000/svg">
<g filter="url(#filter0_ddddd_1313_922)">
<rect x="6.23999" y="1.92969" width="71.72" height="71.72" rx="21.52" fill="white"/>
<path d="M35.371 56.6213C28.6866 56.6213 23.2679 51.2025 23.2679 44.5182C23.2679 37.8338 28.6866 32.415 35.371 32.415C42.0554 32.415 47.4741 37.8338 47.4741 44.5182C47.4741 51.2025 42.0554 56.6213 35.371 56.6213Z" stroke="#FF5F39" stroke-width="2.98828" stroke-linejoin="round"/>
<path d="M51.5087 44.605C53.2287 43.7507 54.7207 42.4994 55.8615 40.9544C57.0022 39.4094 57.759 37.6151 58.0691 35.7199C58.3793 33.8246 58.234 31.8827 57.6452 30.0547C57.0564 28.2267 56.0411 26.565 54.6831 25.207C53.3251 23.849 51.6634 22.8337 49.8354 22.2449C48.0074 21.6561 46.0655 21.5108 44.1702 21.821C42.275 22.1311 40.4807 22.8879 38.9357 24.0286C37.3907 25.1694 36.1394 26.6614 35.2851 28.3814M42.7568 45.3877C40.796 44.8165 39.0111 43.7595 37.5677 42.3147C36.1242 40.8698 35.069 39.0839 34.4998 37.1226" stroke="#FF5F39" stroke-width="2.98828" stroke-linecap="round" stroke-linejoin="round"/>
</g>
<defs>
<filter id="filter0_ddddd_1313_922" x="0.23999" y="0.929688" width="83.72" height="90.7197" filterUnits="userSpaceOnUse" color-interpolation-filters="sRGB">
<feFlood flood-opacity="0" result="BackgroundImageFix"/>
<feColorMatrix in="SourceAlpha" type="matrix" values="0 0 0 0 0 0 0 0 0 0 0 0 0 0 0 0 0 0 127 0" result="hardAlpha"/>
<feMorphology radius="1" operator="dilate" in="SourceAlpha" result="effect1_dropShadow_1313_922"/>
<feOffset/>
<feComposite in2="hardAlpha" operator="out"/>
<feColorMatrix type="matrix" values="0 0 0 0 0 0 0 0 0 0.239216 0 0 0 0 0.239216 0 0 0 0.04 0"/>
<feBlend mode="normal" in2="BackgroundImageFix" result="effect1_dropShadow_1313_922"/>
<feColorMatrix in="SourceAlpha" type="matrix" values="0 0 0 0 0 0 0 0 0 0 0 0 0 0 0 0 0 0 127 0" result="hardAlpha"/>
<feMorphology radius="0.5" operator="erode" in="SourceAlpha" result="effect2_dropShadow_1313_922"/>
<feOffset dy="1"/>
<feGaussianBlur stdDeviation="0.5"/>
<feComposite in2="hardAlpha" operator="out"/>
<feColorMatrix type="matrix" values="0 0 0 0 0 0 0 0 0 0.121569 0 0 0 0 0.121569 0 0 0 0.08 0"/>
<feBlend mode="normal" in2="effect1_dropShadow_1313_922" result="effect2_dropShadow_1313_922"/>
<feColorMatrix in="SourceAlpha" type="matrix" values="0 0 0 0 0 0 0 0 0 0 0 0 0 0 0 0 0 0 127 0" result="hardAlpha"/>
<feMorphology radius="1.5" operator="erode" in="SourceAlpha" result="effect3_dropShadow_1313_922"/>
<feOffset dy="3"/>
<feGaussianBlur stdDeviation="1.5"/>
<feComposite in2="hardAlpha" operator="out"/>
<feColorMatrix type="matrix" values="0 0 0 0 0 0 0 0 0 0.239216 0 0 0 0 0.239216 0 0 0 0.04 0"/>
<feBlend mode="normal" in2="effect2_dropShadow_1313_922" result="effect3_dropShadow_1313_922"/>
<feColorMatrix in="SourceAlpha" type="matrix" values="0 0 0 0 0 0 0 0 0 0 0 0 0 0 0 0 0 0 127 0" result="hardAlpha"/>
<feMorphology radius="3" operator="erode" in="SourceAlpha" result="effect4_dropShadow_1313_922"/>
<feOffset dy="6"/>
<feGaussianBlur stdDeviation="3"/>
<feComposite in2="hardAlpha" operator="out"/>
<feColorMatrix type="matrix" values="0 0 0 0 0 0 0 0 0 0.239216 0 0 0 0 0.239216 0 0 0 0.04 0"/>
<feBlend mode="normal" in2="effect3_dropShadow_1313_922" result="effect4_dropShadow_1313_922"/>
<feColorMatrix in="SourceAlpha" type="matrix" values="0 0 0 0 0 0 0 0 0 0 0 0 0 0 0 0 0 0 127 0" result="hardAlpha"/>
<feMorphology radius="6" operator="erode" in="SourceAlpha" result="effect5_dropShadow_1313_922"/>
<feOffset dy="12"/>
<feGaussianBlur stdDeviation="6"/>
<feComposite in2="hardAlpha" operator="out"/>
<feColorMatrix type="matrix" values="0 0 0 0 0 0 0 0 0 0.239216 0 0 0 0 0.239216 0 0 0 0.04 0"/>
<feBlend mode="normal" in2="effect4_dropShadow_1313_922" result="effect5_dropShadow_1313_922"/>
<feBlend mode="normal" in="SourceGraphic" in2="effect5_dropShadow_1313_922" result="shape"/>
</filter>
</defs>
</svg>
