<svg width="85" height="91" viewBox="0 0 85 91" fill="none" xmlns="http://www.w3.org/2000/svg">
<g filter="url(#filter0_ddddd_1313_926)">
<rect x="6.95996" y="1.23047" width="71.72" height="71.72" rx="21.52" fill="white"/>
<path d="M32.0568 36.418L28.0224 40.4517L23.988 36.418M53.5735 40.4517L57.6078 36.418L61.6422 40.4517" stroke="#FF5F39" stroke-width="2.98828" stroke-linecap="round" stroke-linejoin="round"/>
<path d="M56.2629 29.6953C56.2629 30.0519 56.4046 30.3939 56.6568 30.6461C56.909 30.8982 57.251 31.0399 57.6077 31.0399C57.9644 31.0399 58.3064 30.8982 58.5586 30.6461C58.8108 30.3939 58.9525 30.0519 58.9525 29.6953H56.2629ZM58.9525 39.1074V37.7628H56.2629V39.1074H58.9525ZM40.1254 39.1074H41.4702C41.4702 38.8164 41.3758 38.5334 41.2012 38.3006L40.1254 39.1074ZM44.1598 40.452C44.1598 40.8086 44.3015 41.1506 44.5537 41.4027C44.8059 41.6549 45.1479 41.7965 45.5046 41.7965C45.8612 41.7965 46.2033 41.6549 46.4555 41.4027C46.7077 41.1506 46.8494 40.8086 46.8494 40.452H44.1598ZM29.3671 39.1074V27.0061H26.6775V39.1074H29.3671ZM33.4014 22.9724H52.2285V20.2832H33.4014V22.9724ZM52.2285 51.2086H36.091V53.8978H52.2285V51.2086ZM34.7462 49.864V47.624H32.0567V49.864H34.7462ZM41.4702 40.901V40.452H38.7806V40.901H41.4702ZM56.2629 27.0061V29.6953H58.9525V27.0061H56.2629ZM56.2629 39.1074V47.1749H58.9525V39.1074H56.2629ZM41.4702 40.452V39.1074H38.7806V40.452H41.4702ZM41.2012 38.3006L39.8161 36.4559L37.6644 38.0694L39.0496 39.9141L41.2012 38.3006ZM45.8139 36.4559L44.886 37.6902L47.0376 39.3037L47.9655 38.0667L45.8139 36.4559ZM44.1598 39.8711V40.452H46.8494V39.8711H44.1598ZM39.8161 36.4559C39.2727 35.7347 39.0087 34.8412 39.073 33.9405C39.1372 33.0399 39.5254 32.1929 40.1658 31.5562L38.2642 29.6549C37.1661 30.7494 36.5006 32.2037 36.3904 33.75C36.2802 35.2963 36.7327 36.8303 37.6644 38.0694L39.8161 36.4559ZM37.885 44.4857C39.8645 44.4857 41.4702 42.8803 41.4702 40.901H38.7806C38.7806 41.3958 38.3772 41.7965 37.885 41.7965V44.4857ZM34.7462 47.624C34.7462 45.8894 36.1502 44.4857 37.885 44.4857V41.7965C34.6656 41.7965 32.0567 44.405 32.0567 47.624H34.7462ZM36.091 51.2086C35.7344 51.2086 35.3923 51.067 35.1401 50.8148C34.8879 50.5626 34.7462 50.2206 34.7462 49.864H32.0567C32.0567 50.9339 32.4817 51.9599 33.2383 52.7163C33.9949 53.4728 35.021 53.8978 36.091 53.8978V51.2086ZM44.886 37.6902C44.4153 38.3194 44.1598 39.0832 44.1598 39.8684H46.8494C46.8494 39.6667 46.9166 39.465 47.0376 39.3037L44.886 37.6902ZM52.2285 53.8978C54.0118 53.8978 55.7221 53.1895 56.9831 51.9287C58.2441 50.6679 58.9525 48.9579 58.9525 47.1749H56.2629C56.2629 48.2447 55.8379 49.2707 55.0813 50.0272C54.3247 50.7836 53.2985 51.2086 52.2285 51.2086V53.8978ZM45.4642 31.5562C46.7821 32.8739 46.9327 34.9634 45.8139 36.4559L47.9655 38.0694C48.8973 36.8303 49.3498 35.2963 49.2396 33.75C49.1293 32.2037 48.4639 30.7494 47.3658 29.6549L45.4642 31.5562ZM52.2285 22.9724C53.2985 22.9724 54.3247 23.3974 55.0813 24.1538C55.8379 24.9103 56.2629 25.9363 56.2629 27.0061H58.9525C58.9525 25.2231 58.2441 23.5131 56.9831 22.2523C55.7221 20.9915 54.0118 20.2832 52.2285 20.2832V22.9724ZM40.1658 31.5562C40.5137 31.2083 40.9267 30.9324 41.3812 30.7442C41.8358 30.5559 42.323 30.459 42.815 30.459C43.307 30.459 43.7942 30.5559 44.2488 30.7442C44.7033 30.9324 45.1163 31.2083 45.4642 31.5562L47.3658 29.6549C46.1588 28.4483 44.5218 27.7704 42.815 27.7704C41.1082 27.7704 39.4712 28.4483 38.2642 29.6549L40.1658 31.5562ZM29.3671 27.0061C29.3671 25.9363 29.7921 24.9103 30.5487 24.1538C31.3053 23.3974 32.3315 22.9724 33.4014 22.9724V20.2832C31.6181 20.2832 29.9079 20.9915 28.6469 22.2523C27.3859 23.5131 26.6775 25.2231 26.6775 27.0061H29.3671Z" fill="#FF5F39"/>
</g>
<defs>
<filter id="filter0_ddddd_1313_926" x="0.959961" y="0.230469" width="83.72" height="90.7197" filterUnits="userSpaceOnUse" color-interpolation-filters="sRGB">
<feFlood flood-opacity="0" result="BackgroundImageFix"/>
<feColorMatrix in="SourceAlpha" type="matrix" values="0 0 0 0 0 0 0 0 0 0 0 0 0 0 0 0 0 0 127 0" result="hardAlpha"/>
<feMorphology radius="1" operator="dilate" in="SourceAlpha" result="effect1_dropShadow_1313_926"/>
<feOffset/>
<feComposite in2="hardAlpha" operator="out"/>
<feColorMatrix type="matrix" values="0 0 0 0 0 0 0 0 0 0.239216 0 0 0 0 0.239216 0 0 0 0.04 0"/>
<feBlend mode="normal" in2="BackgroundImageFix" result="effect1_dropShadow_1313_926"/>
<feColorMatrix in="SourceAlpha" type="matrix" values="0 0 0 0 0 0 0 0 0 0 0 0 0 0 0 0 0 0 127 0" result="hardAlpha"/>
<feMorphology radius="0.5" operator="erode" in="SourceAlpha" result="effect2_dropShadow_1313_926"/>
<feOffset dy="1"/>
<feGaussianBlur stdDeviation="0.5"/>
<feComposite in2="hardAlpha" operator="out"/>
<feColorMatrix type="matrix" values="0 0 0 0 0 0 0 0 0 0.121569 0 0 0 0 0.121569 0 0 0 0.08 0"/>
<feBlend mode="normal" in2="effect1_dropShadow_1313_926" result="effect2_dropShadow_1313_926"/>
<feColorMatrix in="SourceAlpha" type="matrix" values="0 0 0 0 0 0 0 0 0 0 0 0 0 0 0 0 0 0 127 0" result="hardAlpha"/>
<feMorphology radius="1.5" operator="erode" in="SourceAlpha" result="effect3_dropShadow_1313_926"/>
<feOffset dy="3"/>
<feGaussianBlur stdDeviation="1.5"/>
<feComposite in2="hardAlpha" operator="out"/>
<feColorMatrix type="matrix" values="0 0 0 0 0 0 0 0 0 0.239216 0 0 0 0 0.239216 0 0 0 0.04 0"/>
<feBlend mode="normal" in2="effect2_dropShadow_1313_926" result="effect3_dropShadow_1313_926"/>
<feColorMatrix in="SourceAlpha" type="matrix" values="0 0 0 0 0 0 0 0 0 0 0 0 0 0 0 0 0 0 127 0" result="hardAlpha"/>
<feMorphology radius="3" operator="erode" in="SourceAlpha" result="effect4_dropShadow_1313_926"/>
<feOffset dy="6"/>
<feGaussianBlur stdDeviation="3"/>
<feComposite in2="hardAlpha" operator="out"/>
<feColorMatrix type="matrix" values="0 0 0 0 0 0 0 0 0 0.239216 0 0 0 0 0.239216 0 0 0 0.04 0"/>
<feBlend mode="normal" in2="effect3_dropShadow_1313_926" result="effect4_dropShadow_1313_926"/>
<feColorMatrix in="SourceAlpha" type="matrix" values="0 0 0 0 0 0 0 0 0 0 0 0 0 0 0 0 0 0 127 0" result="hardAlpha"/>
<feMorphology radius="6" operator="erode" in="SourceAlpha" result="effect5_dropShadow_1313_926"/>
<feOffset dy="12"/>
<feGaussianBlur stdDeviation="6"/>
<feComposite in2="hardAlpha" operator="out"/>
<feColorMatrix type="matrix" values="0 0 0 0 0 0 0 0 0 0.239216 0 0 0 0 0.239216 0 0 0 0.04 0"/>
<feBlend mode="normal" in2="effect4_dropShadow_1313_926" result="effect5_dropShadow_1313_926"/>
<feBlend mode="normal" in="SourceGraphic" in2="effect5_dropShadow_1313_926" result="shape"/>
</filter>
</defs>
</svg>
